<svg xmlns="http://www.w3.org/2000/svg" viewBox="0 0 100 100">
  <defs>
    <linearGradient id="grad1" x1="0%" y1="0%" x2="100%" y2="100%">
      <stop offset="0%" style="stop-color:#667eea;stop-opacity:1" />
      <stop offset="100%" style="stop-color:#764ba2;stop-opacity:1" />
    </linearGradient>
  </defs>
  
  <!-- Background circle -->
  <circle cx="50" cy="50" r="48" fill="url(#grad1)"/>
  
  <!-- Spade symbol -->
  <path d="M 50 20 Q 40 30, 35 40 Q 30 50, 35 55 L 40 55 L 40 65 L 45 65 L 45 55 L 55 55 L 55 65 L 60 65 L 60 55 L 65 55 Q 70 50, 65 40 Q 60 30, 50 20 Z" 
        fill="white" opacity="0.9"/>
  
  <!-- Heart symbol -->
  <path d="M 50 80 L 35 65 Q 30 60, 30 55 Q 30 45, 40 45 Q 45 45, 50 50 Q 55 45, 60 45 Q 70 45, 70 55 Q 70 60, 65 65 Z" 
        fill="white" opacity="0.7"/>
</svg>
